<svg xmlns="http://www.w3.org/2000/svg" viewBox="0 0 512 512"><defs><linearGradient id="g" x1="0" y1="0" x2="1" y2="1"><stop stop-color="#ffd86a"/><stop offset=".45" stop-color="#c084fc"/><stop offset="1" stop-color="#3b82f6"/></linearGradient><filter id="glow"><feGaussianBlur stdDeviation="10" result="b"/><feMerge><feMergeNode in="b"/><feMergeNode in="SourceGraphic"/></feMerge></filter></defs><rect x="14" y="14" width="484" height="484" rx="110" fill="#05040d" stroke="url(#g)" stroke-width="16"/><circle cx="256" cy="270" r="176" fill="#090718" stroke="url(#g)" stroke-width="12" filter="url(#glow)"/><path d="M156 175h200v44H203v42h112c39 0 64 25 64 61s-25 61-64 61H152v-45h157c11 0 18-6 18-16s-7-16-18-16H156z" fill="url(#g)"/><path d="M236 111l20-34 20 34 34 20-34 20-20 34-20-34-34-20z" fill="#ffd76a"/><path d="M176 310v54c0 23 18 41 41 41s41-18 41-41v-20" fill="none" stroke="#d8b4fe" stroke-width="15" stroke-linecap="round"/><path d="M153 310v54c0 36 29 65 65 65s65-29 65-65v-20" fill="none" stroke="#6ee7ff" stroke-width="6" opacity=".8"/><path d="M105 265v74M407 265v74M123 245v114M389 245v114" stroke="#a855f7" stroke-width="10" stroke-linecap="round"/><path d="M115 132l25-25M397 132l-25-25" stroke="#ffd86a" stroke-width="8" stroke-linecap="round"/></svg>