<svg xmlns="http://www.w3.org/2000/svg" viewBox="0 0 512 512" role="img" aria-label="SALVIAN AI logo"><defs><linearGradient id="g" x1="0" y1="0" x2="1" y2="1"><stop offset="0" stop-color="#ffd86a"/><stop offset=".48" stop-color="#c084fc"/><stop offset="1" stop-color="#3b82f6"/></linearGradient><radialGradient id="bg"><stop stop-color="#241044"/><stop offset="1" stop-color="#03040d"/></radialGradient><filter id="glow"><feGaussianBlur stdDeviation="8" result="b"/><feMerge><feMergeNode in="b"/><feMergeNode in="SourceGraphic"/></feMerge></filter></defs><rect x="12" y="12" width="488" height="488" rx="112" fill="url(#bg)" stroke="url(#g)" stroke-width="12"/><circle cx="256" cy="256" r="190" fill="#050612" stroke="url(#g)" stroke-width="8" filter="url(#glow)"/><path d="M354 150C331 122 294 108 250 108c-61 0-103 31-103 76 0 43 30 62 103 79 55 13 70 24 70 47 0 26-28 42-73 42-42 0-78-15-102-43" fill="none" stroke="url(#g)" stroke-width="42" stroke-linecap="round" stroke-linejoin="round"/><path d="M350 362v-88" fill="none" stroke="#d8b4fe" stroke-width="15" stroke-linecap="round"/><path d="M350 274h48v54c0 22-18 40-40 40h-8" fill="none" stroke="#6ee7ff" stroke-width="9" stroke-linecap="round" stroke-linejoin="round"/><path d="M165 119l18-30 18 30 30 18-30 18-18 30-18-30-30-18z" fill="#ffd76a"/></svg>